 <svg t="1740986741673" class="icon" viewBox="0 0 1024 1024" version="1.1" xmlns="http://www.w3.org/2000/svg" p-id="5345" width="200" height="200"><path d="M942.93 932.09H700.4c-4.78 0-8.66 3.88-8.66 8.66s3.88 8.66 8.66 8.66h242.53c4.78 0 8.66-3.88 8.66-8.66s-3.88-8.66-8.66-8.66z m-30.32-51.97c4.78 0 8.66-3.88 8.66-8.66s-3.88-8.66-8.66-8.66h-60.63c-4.78 0-8.66 3.88-8.66 8.66s3.88 8.66 8.66 8.66h60.63zM626.99 202.6c5.71 3.2 12.94 1.23 16.21-4.43l46.66-80.67c3.32-5.75 1.3-13.1-4.49-16.35-5.71-3.2-12.94-1.23-16.21 4.43l-46.66 80.67c-3.33 5.75-1.31 13.1 4.49 16.35z m-149.65-11.1h3.44c6.6 0 11.95-5.34 11.95-11.92V86.5c0-6.58-5.35-11.92-11.95-11.92h-3.44c-6.6 0-11.95 5.34-11.95 11.92v93.08c0 6.58 5.35 11.92 11.95 11.92zM302.3 223.52c3.79 5.3 11.13 6.59 16.51 2.91l1.14-0.78c5.5-3.77 6.84-11.32 2.96-16.74l-53.85-75.41c-3.78-5.3-11.13-6.59-16.51-2.91l-1.13 0.78c-5.5 3.77-6.84 11.32-2.96 16.74l53.84 75.41z m540.75 131.67l-1.3-1.3c-1.3-2.6-3.91-5.19-7.81-6.5L466.7 272.04h-6.51L163.26 388.96c-0.01 0-0.02 0.01-0.04 0.01-1.27 0.38-2.4 1.12-3.34 2.06l-0.59 0.59a26.428 26.428 0 0 0-4.33 5.65L65.59 552.65c-1.3 2.6-2.61 6.5-1.3 10.39 1.3 2.6 3.91 5.2 7.82 6.5l84.65 22.09v228.64c0 5.2 3.91 9.1 7.81 10.39l414.12 118.22c2.61 1.3 6.51 0 9.12-1.3l260.45-145.5c3.91-2.6 5.21-5.2 5.21-10.39l-2.61-224.74 5.21-2.6 98.98-58.46c2.6-1.3 5.21-5.19 5.21-7.79v-6.5L843.05 355.19zM91.64 551.35l82.04-139.01 6.51 1.3 111.99 27.28 265.66 64.96-97.67 142.9-368.53-97.43z m85.95 259.83V598.12h1.3l11.72 2.6 270.87 71.45c5.21 1.3 9.12 0 11.72-5.2l91.16-133.81 3.91 389.73-390.68-111.71zM585.2 487.7l-286.5-68.85-3.91-2.21-93.76-22.08 260.45-101.33 334.68 68.85-22.14 12.99-32.56 19.49L589.11 489l-3.91-1.9z m6.51 433.94l-3.91-400.13 18.23 31.18 65.11 109.12c2.61 5.2 10.42 6.5 15.63 3.9l141.95-83.14 2.6 205.26L591.71 920.1z m93.76-280.61l-79.44-133.81 7.81-5.19 141.95-84.45 71.62-42.87L930.3 492.89l-244.83 146.8z" p-id="5346"></path></svg>
