<svg xmlns="http://www.w3.org/2000/svg" width="320" height="180" viewBox="0 0 1024 1024"><path fill="#999" d="M400.7 268.8a31.2 31.2 0 0 0-31.2 31.2v30.5c0 17.2 14 31.2 31.2 31.2s31.2-14 31.2-31.2v-30.5c0-17.2-14-31.2-31.2-31.2zm223 92.9c17.2 0 31.2-14 31.2-31.2v-30.5c0-17.2-14-31.2-31.2-31.2s-31.2 14-31.2 31.2v30.5c0 17.2 14 31.2 31.2 31.2zm-185.4 27.1c-14.7 9.1-19.2 28.4-10 43 11.2 18.1 42 48.6 86.2 48.6 44 0 75.1-30.3 86.6-48.2 9.3-14.5 5-33.8-9.5-43.1-14.5-9.3-33.8-5.1-43.1 9.4l-33.3 19.5-33.3-19.4c-9.2-14.4-28.3-18.8-42.8-9.8zm386.2-272.1H571.6c-17.2 0-31.2 14-31.2 31.2s14 31.2 31.2 31.2h252.9c40.2 0 72.9 32.7 72.9 72.9v397L708 495.7c-12.2-10.7-30.5-10.2-42.2 1L468.6 674.2 309.5 517.5c-12-11.7-31-12-43.2-.6L127 646.2V252c0-40.2 32.7-72.9 72.9-72.9h252.9c17.2 0 31.2-14 31.2-31.2s-14-31.2-31.2-31.2H199.8c-74.6 0-135.3 60.7-135.3 135.3v520.6c0 74.6 60.7 135.3 135.3 135.3h252.9c17.2 0 31.2-14 31.2-31.2s-14-31.2-31.2-31.2H199.8c-40.2 0-72.9-32.7-72.9-72.9v-41.2l160-148.4 159.4 157c12.1 11.9 31.4 12 43.5.3l198.6-190.7 208.9 182.4v40.6c0 40.2-32.7 72.9-72.9 72.9H571.6c-17.2 0-31.2 14-31.2 31.2s14 31.2 31.2 31.2h252.9c74.6 0 135.3-60.7 135.3-135.3V252c0-74.6-60.7-135.3-135.3-135.3z"/></svg>